<?xml version="1.0" encoding="utf-8"?>
<!-- Generator: Adobe Illustrator 24.0.0, SVG Export Plug-In . SVG Version: 6.00 Build 0)  -->
<svg version="1.1" id="Layer_1" xmlns="http://www.w3.org/2000/svg" xmlns:xlink="http://www.w3.org/1999/xlink" x="0px" y="0px"
	 viewBox="0 0 300 300" style="enable-background:new 0 0 300 300;" xml:space="preserve">
<style type="text/css">
	.st0{fill:#B3A369;}
</style>
<path class="st0" d="M150,17c35.5,0,68.9,13.8,94,39c25.1,25.1,39,58.5,39,94s-13.8,68.9-39,94c-25.1,25.1-58.5,39-94,39
	s-68.9-13.8-94-39c-25.1-25.1-39-58.5-39-94s13.8-68.9,39-94C81.1,30.8,114.5,17,150,17 M150,7C71,7,7,71,7,150s64,143,143,143
	s143-64,143-143S229,7,150,7L150,7z"/>
<g>
	<path class="st0" d="M164.6,74.2c0.3,8-5.6,14.5-15,14.5c-8.3,0-14.2-6.4-14.2-14.5c0-8.3,6.2-14.8,14.8-14.8
		C159,59.5,164.6,65.9,164.6,74.2z M138.3,240.5V110.7h23.6v129.8H138.3z"/>
</g>
</svg>
